<?xml version="1.0" encoding="utf-8"?>
<!-- Generator: Adobe Illustrator 26.4.1, SVG Export Plug-In . SVG Version: 6.00 Build 0)  -->
<svg version="1.1" id="Layer_1" xmlns="http://www.w3.org/2000/svg" xmlns:xlink="http://www.w3.org/1999/xlink" x="0px" y="0px"
	 viewBox="0 0 22 22" style="enable-background:new 0 0 22 22;" xml:space="preserve">
<style type="text/css">
	.st0{fill:#E76800;}
</style>
<path id="Icon_material-access-time" class="st0" d="M11,0C4.9,0,0,4.9,0,11s4.9,11,11,11c6.1,0,11-4.9,11-11C22,4.9,17.1,0,11,0
	C11,0,11,0,11,0z M11,19.8c-1.7,0-3.4-0.5-4.9-1.5c-2.5-1.6-3.9-4.4-3.9-7.3c0-4.9,3.9-8.8,8.8-8.8s8.8,3.9,8.8,8.8
	S15.9,19.8,11,19.8L11,19.8z M11.6,5.5H9.9v6.6l5.8,3.5l0.8-1.4l-4.9-2.9V5.5z"/>
</svg>
